<svg width="120" height="97" viewBox="0 0 120 97" fill="none" xmlns="http://www.w3.org/2000/svg">
<path d="M61.184 95.2319C57.7706 95.8293 55.04 96.1279 52.992 96.1279C49.0666 96.1279 45.2266 95.7013 41.472 94.8479C41.1306 93.8239 40.832 93.1839 40.576 92.9279C40.32 92.6719 40.0213 92.5013 39.68 92.4159C39.3386 92.4159 39.0826 92.3733 38.912 92.2879C38.2293 90.1546 37.2906 86.6986 36.096 81.9199C35.4133 79.1039 34.816 77.0559 34.304 75.7759C33.8773 74.4959 33.408 73.8559 32.896 73.8559C32.2133 73.8559 31.616 73.8986 31.104 73.9839C30.6773 73.9839 30.08 73.9839 29.312 73.9839C28.7146 75.6053 28.1173 78.2079 27.52 81.7919C26.8373 85.1199 26.24 87.7653 25.728 89.7279C25.216 91.6906 24.4906 93.5679 23.552 95.3599C23.296 95.3599 22.912 95.4026 22.4 95.4879C21.9733 95.5733 21.4186 95.6159 20.736 95.6159C19.7973 95.5306 17.8346 95.4879 14.848 95.4879L9.34398 95.3599L2.55998 95.2319L2.94398 92.6719H-2.25306e-05L1.79198 83.1999C4.18131 69.3759 6.78398 55.7653 9.59998 42.3679C12.416 28.8853 15.9573 15.0613 20.224 0.895943C21.76 0.725278 22.656 0.639946 22.912 0.639946C23.2533 0.639946 24.3626 0.682612 26.24 0.767944C28.1173 0.853277 32.0426 0.597277 38.016 -5.34058e-05C38.3573 1.45061 38.5706 2.38928 38.656 2.81595L40.576 2.55994C41.344 6.91194 44.032 18.6879 48.64 37.8879C50.3466 44.8853 51.2426 48.5973 51.328 49.0239L61.184 95.2319ZM36.992 1.40794C33.2373 1.74928 29.5253 1.91994 25.856 1.91994H23.168C22.144 1.91994 21.504 1.96261 21.248 2.04794C17.152 15.7866 13.7386 29.1413 11.008 42.1119C8.36264 55.0826 5.71731 68.9066 3.07198 83.5839C2.81598 85.2053 2.55998 86.7413 2.30398 88.1919C2.04798 89.5573 1.83464 90.6239 1.66398 91.3919L1.91998 91.5199H4.99198L15.104 91.6479C15.9573 91.7333 16.9813 91.7759 18.176 91.7759C19.1146 91.7759 19.6693 91.7333 19.84 91.6479L20.224 91.5199C20.992 90.2399 21.5893 88.7039 22.016 86.9119C22.4426 85.1199 22.912 82.7306 23.424 79.7439C24.2773 74.9653 25.088 71.7653 25.856 70.1439C26.7946 70.1439 27.5626 70.1439 28.16 70.1439C28.7573 70.0586 29.2266 70.0159 29.568 70.0159H31.232L33.792 70.2719C34.4746 71.8079 35.1573 73.9413 35.84 76.6719C36.608 79.4026 37.0773 81.1093 37.248 81.7919C38.1013 85.8026 38.9546 88.9173 39.808 91.1359H39.936C43.264 91.9039 46.7626 92.2879 50.432 92.2879C52.5653 92.2879 54.784 92.0746 57.088 91.6479V91.5199L47.488 46.7199L36.992 1.40794ZM24.96 55.0399C25.984 47.4453 26.4533 43.9893 26.368 44.6719C27.0506 38.9546 27.6053 34.8159 28.032 32.2559C28.544 29.6106 29.056 28.2879 29.568 28.2879C30.1653 28.2879 30.8053 30.2933 31.488 34.3039C32.256 38.3146 33.2373 45.2266 34.432 55.0399L28.032 55.1679L24.96 55.0399ZM31.232 39.1679L29.184 53.7599H32.896L31.232 39.1679ZM117.604 34.8159C113.849 35.4133 110.351 35.7119 107.108 35.7119C103.097 35.7119 99.5986 35.2853 96.612 34.4319C96.6973 34.1759 96.74 33.5359 96.74 32.5119C95.5453 32.3413 94.6493 32.1279 94.052 31.8719C94.1373 31.6159 94.18 31.0613 94.18 30.2079C94.18 28.4159 93.7533 27.2213 92.9 26.6239C92.0466 26.0266 90.852 25.7279 89.316 25.7279C87.6093 25.7279 86.1586 26.2399 84.964 27.2639C83.7693 28.2879 83.172 29.7813 83.172 31.7439C83.172 33.1093 83.4706 34.0053 84.068 34.4319C84.6653 34.7733 85.3906 34.9866 86.244 35.0719C87.0973 35.1573 87.6946 35.2426 88.036 35.3279C93.3266 36.0959 98.3186 38.1439 103.012 41.4719C107.791 44.7146 111.588 48.6826 114.404 53.3759C117.305 57.9839 118.756 62.6773 118.756 67.4559C118.756 73.1733 117.476 78.2079 114.916 82.5599C112.356 86.9119 108.943 90.2399 104.676 92.5439C100.495 94.9333 95.9293 96.1279 90.98 96.1279C85.348 96.1279 79.8013 94.8479 74.34 92.2879C68.8786 89.8133 64.3986 86.3999 60.9 82.0479C57.4866 77.6106 55.78 72.7893 55.78 67.5839L55.908 65.9199V64.1279C58.212 63.7866 60.6866 63.6159 63.332 63.6159L70.756 63.7439C72.4626 63.8293 74.8946 63.8719 78.052 63.8719C78.052 64.8106 78.18 65.6639 78.436 66.4319H80.612C80.612 68.5653 81.0813 70.0586 82.02 70.9119C82.9586 71.6799 84.3666 72.0639 86.244 72.0639C88.1213 72.0639 89.7 71.5519 90.98 70.5279C92.26 69.5039 92.9 68.0533 92.9 66.1759C92.9 63.5306 91.9186 61.6959 89.956 60.6719C87.9933 59.6479 85.988 58.9653 83.94 58.6239C81.892 58.1973 80.5693 57.9413 79.972 57.8559L78.052 57.4719C75.492 56.9599 73.3586 56.1493 71.652 55.0399C69.9453 53.8453 68.1106 52.2666 66.148 50.3039C60.1746 44.5866 57.188 37.8026 57.188 29.9519C57.188 24.6613 58.5106 19.7973 61.156 15.3599C63.8013 10.9226 67.3853 7.42395 71.908 4.86395C76.516 2.21861 81.5933 0.895943 87.14 0.895943C92.8573 0.895943 98.148 1.96261 103.012 4.09595C107.961 6.22928 111.929 9.30128 114.916 13.3119C117.903 17.3226 119.396 22.0586 119.396 27.5199C119.396 29.6533 119.14 32.0853 118.628 34.8159H117.604ZM114.916 30.9759C115.343 28.5866 115.556 26.5813 115.556 24.9599C115.556 17.3653 112.825 11.6906 107.364 7.93594C101.988 4.09594 95.2466 2.17594 87.14 2.17594C81.764 2.17594 76.9 3.41328 72.548 5.88795C68.196 8.36261 64.74 11.7333 62.18 15.9999C59.7053 20.2666 58.468 24.9173 58.468 29.9519C58.468 32.9386 59.108 36.1813 60.388 39.6799C61.668 43.0933 63.6306 46.1226 66.276 48.7679C68.9213 51.4133 72.0786 53.0346 75.748 53.6319C76.516 53.8026 78.7346 54.2719 82.404 55.0399C86.0733 55.7226 88.932 57.0026 90.98 58.8799C93.1133 60.7573 94.18 63.1893 94.18 66.1759C94.18 68.5653 93.412 70.3573 91.876 71.5519C90.34 72.7466 88.4626 73.3439 86.244 73.3439C83.7693 73.3439 81.5933 72.6613 79.716 71.2959C77.924 69.8453 76.9426 67.7973 76.772 65.1519C74.1266 65.1519 72.1213 65.1093 70.756 65.0239L63.844 64.8959C61.4546 64.8959 59.236 65.0239 57.188 65.2799V67.4559C57.188 72.4906 58.724 76.8853 61.796 80.6399C64.868 84.3946 68.7933 87.2959 73.572 89.3439C78.436 91.3066 83.428 92.2879 88.548 92.2879C93.2413 92.2879 97.5933 91.2639 101.604 89.2159C105.615 87.0826 108.815 83.9679 111.204 79.8719C113.679 75.6906 114.916 70.7413 114.916 65.0239C114.916 60.3306 113.679 55.9359 111.204 51.8399C108.729 47.6586 105.401 44.2026 101.22 41.4719C97.124 38.7413 92.6866 37.1199 87.908 36.6079C82.1906 36.0106 79.332 33.4933 79.332 29.0559C79.332 26.7519 80.0573 25.0026 81.508 23.8079C82.9586 22.5279 84.708 21.8879 86.756 21.8879C89.1453 21.8879 91.236 22.5706 93.028 23.9359C94.82 25.3013 95.716 27.0933 95.716 29.3119C95.716 30.0799 95.6733 30.5919 95.588 30.8479C98.404 31.6159 101.348 31.9999 104.42 31.9999C107.065 31.9999 110.521 31.6586 114.788 30.9759H114.916Z" fill="white"/>
</svg>
